<svg xmlns="http://www.w3.org/2000/svg" xmlns:xlink="http://www.w3.org/1999/xlink" width="100" zoomAndPan="magnify" viewBox="0 0 75 74.999997" height="100" preserveAspectRatio="xMidYMid meet" version="1.0"><defs><clipPath id="9c7fb4a2c1"><path d="M 6.28125 40 L 25 40 L 25 71.890625 L 6.28125 71.890625 Z M 6.28125 40 " clip-rule="nonzero"/></clipPath><clipPath id="84e0796d6e"><path d="M 28 24 L 47 24 L 47 71.890625 L 28 71.890625 Z M 28 24 " clip-rule="nonzero"/></clipPath><clipPath id="4b07700d70"><path d="M 50 10.789062 L 68.769531 10.789062 L 68.769531 71.890625 L 50 71.890625 Z M 50 10.789062 " clip-rule="nonzero"/></clipPath><clipPath id="8246d36c7b"><path d="M 33 19 L 60.4375 19 L 60.4375 39 L 33 39 Z M 33 19 " clip-rule="nonzero"/></clipPath><clipPath id="9985e081b4"><path d="M 20 3.410156 L 42 3.410156 L 42 63.125 L 20 63.125 Z M 20 3.410156 " clip-rule="nonzero"/></clipPath></defs><rect x="-7.5" width="90" fill="#ffffff" y="-7.5" height="89.999996" fill-opacity="1"/><rect x="-7.5" width="90" fill="#ffffff" y="-7.5" height="89.999996" fill-opacity="1"/><path fill="#000000" d="M 8.796875 42.296875 C 8.644531 42.296875 8.523438 42.421875 8.523438 42.570312 L 8.523438 69.457031 C 8.523438 69.605469 8.644531 69.730469 8.796875 69.730469 L 21.765625 69.730469 C 21.917969 69.730469 22.039062 69.605469 22.039062 69.457031 L 22.039062 42.570312 C 22.039062 42.421875 21.917969 42.296875 21.765625 42.296875 Z M 8.796875 42.296875 " fill-opacity="1" fill-rule="nonzero"/><g clip-path="url(#9c7fb4a2c1)"><path fill="#000000" d="M 8.796875 40.144531 C 7.464844 40.144531 6.378906 41.234375 6.378906 42.570312 L 6.378906 69.457031 C 6.378906 70.792969 7.464844 71.882812 8.796875 71.882812 L 21.765625 71.882812 C 23.097656 71.882812 24.183594 70.792969 24.183594 69.457031 L 24.183594 42.570312 C 24.183594 41.234375 23.097656 40.144531 21.765625 40.144531 Z M 22.039062 42.570312 L 22.039062 69.457031 C 22.039062 69.605469 21.917969 69.730469 21.765625 69.730469 L 8.796875 69.730469 C 8.644531 69.730469 8.523438 69.605469 8.523438 69.457031 L 8.523438 42.570312 C 8.523438 42.421875 8.644531 42.296875 8.796875 42.296875 L 21.765625 42.296875 C 21.917969 42.296875 22.039062 42.421875 22.039062 42.570312 Z M 22.039062 42.570312 " fill-opacity="1" fill-rule="nonzero"/></g><path fill="#000000" d="M 44.003906 26.691406 L 31.03125 26.691406 C 30.882812 26.691406 30.761719 26.816406 30.761719 26.964844 L 30.761719 69.457031 C 30.761719 69.605469 30.882812 69.730469 31.03125 69.730469 L 44.003906 69.730469 C 44.152344 69.730469 44.273438 69.605469 44.273438 69.457031 L 44.273438 26.964844 C 44.273438 26.816406 44.152344 26.691406 44.003906 26.691406 Z M 44.003906 26.691406 " fill-opacity="1" fill-rule="nonzero"/><g clip-path="url(#84e0796d6e)"><path fill="#000000" d="M 44.003906 24.539062 L 31.03125 24.539062 C 29.699219 24.539062 28.617188 25.628906 28.617188 26.964844 L 28.617188 69.457031 C 28.617188 70.792969 29.699219 71.882812 31.03125 71.882812 L 44.003906 71.882812 C 45.335938 71.882812 46.417969 70.792969 46.417969 69.457031 L 46.417969 26.964844 C 46.417969 25.628906 45.335938 24.539062 44.003906 24.539062 Z M 44.273438 69.457031 C 44.273438 69.605469 44.152344 69.730469 44.003906 69.730469 L 31.03125 69.730469 C 30.882812 69.730469 30.761719 69.605469 30.761719 69.457031 L 30.761719 26.964844 C 30.761719 26.816406 30.882812 26.691406 31.03125 26.691406 L 44.003906 26.691406 C 44.152344 26.691406 44.273438 26.816406 44.273438 26.964844 Z M 44.273438 69.457031 " fill-opacity="1" fill-rule="nonzero"/></g><path fill="#000000" d="M 53.269531 69.730469 L 66.242188 69.730469 C 66.390625 69.730469 66.511719 69.605469 66.511719 69.457031 L 66.511719 13.210938 C 66.511719 13.0625 66.390625 12.941406 66.242188 12.941406 L 53.269531 12.941406 C 53.117188 12.941406 52.996094 13.0625 52.996094 13.210938 L 52.996094 69.457031 C 52.996094 69.605469 53.121094 69.730469 53.269531 69.730469 Z M 53.269531 69.730469 " fill-opacity="1" fill-rule="nonzero"/><g clip-path="url(#4b07700d70)"><path fill="#000000" d="M 53.269531 71.882812 L 66.242188 71.882812 C 67.574219 71.882812 68.65625 70.792969 68.65625 69.457031 L 68.65625 13.210938 C 68.65625 11.875 67.574219 10.789062 66.242188 10.789062 L 53.269531 10.789062 C 51.9375 10.789062 50.851562 11.875 50.851562 13.210938 L 50.851562 69.457031 C 50.851562 70.792969 51.9375 71.882812 53.269531 71.882812 Z M 52.996094 13.210938 C 52.996094 13.0625 53.121094 12.941406 53.269531 12.941406 L 66.242188 12.941406 C 66.390625 12.941406 66.511719 13.0625 66.511719 13.210938 L 66.511719 69.457031 C 66.511719 69.605469 66.390625 69.730469 66.242188 69.730469 L 53.269531 69.730469 C 53.121094 69.730469 52.996094 69.605469 52.996094 69.457031 Z M 52.996094 13.210938 " fill-opacity="1" fill-rule="nonzero"/></g><path fill="#cf92b8" d="M 14.628906 46.382812 C 12.464844 47.378906 10.042969 46.734375 9.21875 44.945312 C 8.398438 43.152344 9.488281 40.898438 11.65625 39.902344 C 13.820312 38.90625 16.246094 39.554688 17.066406 41.34375 C 17.886719 43.132812 16.796875 45.390625 14.628906 46.382812 Z M 27.875 37.917969 L 25.859375 35.769531 L 18.027344 39.367188 C 16.449219 37.699219 13.59375 37.257812 10.992188 38.453125 C 7.855469 39.890625 6.277344 43.15625 7.464844 45.75 C 8.65625 48.339844 12.160156 49.273438 15.296875 47.832031 C 17.898438 46.640625 19.425781 44.183594 19.191406 41.90625 L 27.875 37.917969 " fill-opacity="1" fill-rule="nonzero"/><g clip-path="url(#8246d36c7b)"><path fill="#cf92b8" d="M 34.960938 31.59375 L 33.160156 38.285156 L 59.609375 20.992188 L 60.6875 19.789062 L 34.960938 31.59375 " fill-opacity="1" fill-rule="nonzero"/></g><g clip-path="url(#9985e081b4)"><path fill="#cf92b8" d="M 29.65625 55.113281 C 29.039062 57.414062 26.996094 58.867188 25.09375 58.355469 C 23.191406 57.84375 22.152344 55.5625 22.769531 53.261719 C 23.386719 50.960938 25.429688 49.507812 27.332031 50.019531 C 29.234375 50.53125 30.277344 52.8125 29.65625 55.113281 Z M 29.632812 34.683594 C 29.824219 34.460938 30.160156 34.429688 30.386719 34.621094 C 30.609375 34.8125 30.640625 35.148438 30.449219 35.371094 C 30.257812 35.597656 29.921875 35.625 29.699219 35.4375 C 29.472656 35.246094 29.445312 34.910156 29.632812 34.683594 Z M 29.121094 48.742188 L 32.949219 34.511719 L 41.308594 3.410156 L 40.300781 4.675781 L 26.972656 35.226562 L 29.222656 37.621094 L 26.425781 48.019531 C 24.136719 48.167969 21.972656 50.082031 21.230469 52.847656 C 20.332031 56.179688 21.839844 59.480469 24.589844 60.21875 C 25.484375 60.460938 26.398438 60.398438 27.257812 60.09375 C 27.601562 61.199219 28.164062 62.085938 28.933594 62.734375 C 29.210938 62.972656 29.519531 63.175781 29.851562 63.351562 C 30.199219 63.535156 30.628906 63.398438 30.8125 63.050781 C 30.992188 62.703125 30.859375 62.273438 30.511719 62.089844 C 29.53125 61.578125 28.886719 60.707031 28.546875 59.429688 C 29.761719 58.582031 30.742188 57.214844 31.195312 55.527344 C 31.941406 52.761719 31.027344 50.019531 29.121094 48.742188 " fill-opacity="1" fill-rule="nonzero"/></g><path fill="#cf92b8" d="M 27.578125 39.34375 L 27.878906 39.699219 L 28.171875 38.613281 L 28 38.691406 L 27.582031 39.050781 C 27.5 39.121094 27.5 39.253906 27.578125 39.34375 " fill-opacity="1" fill-rule="nonzero"/><path fill="#cf92b8" d="M 32.589844 39.558594 L 32.328125 39.730469 L 32.308594 39.800781 Z M 32.589844 39.558594 " fill-opacity="1" fill-rule="nonzero"/><path fill="#cf92b8" d="M 24.378906 35.621094 L 26.039062 34.859375 L 26.222656 35.054688 L 27.097656 33.050781 L 24.410156 35.363281 C 24.339844 35.425781 24.328125 35.53125 24.378906 35.621094 " fill-opacity="1" fill-rule="nonzero"/><path fill="#cf92b8" d="M 39.808594 34.839844 L 36.648438 36.90625 L 37.027344 37.351562 L 31.746094 41.886719 L 31.277344 43.644531 C 31.355469 43.71875 31.472656 43.730469 31.546875 43.664062 L 37.820312 38.273438 L 38.613281 39.195312 L 32.339844 44.585938 C 32.257812 44.65625 32.257812 44.789062 32.335938 44.878906 L 32.84375 45.472656 C 32.921875 45.5625 33.050781 45.578125 33.132812 45.507812 L 39.40625 40.117188 L 40.199219 41.039062 L 33.925781 46.433594 C 33.84375 46.5 33.84375 46.632812 33.921875 46.722656 L 34.429688 47.316406 C 34.507812 47.40625 34.636719 47.425781 34.71875 47.355469 L 40.992188 41.960938 L 41.785156 42.882812 L 35.511719 48.277344 C 35.429688 48.347656 35.429688 48.476562 35.507812 48.570312 L 36.015625 49.160156 C 36.09375 49.253906 36.222656 49.269531 36.304688 49.199219 L 42.578125 43.808594 L 43.371094 44.730469 L 37.097656 50.121094 C 37.015625 50.191406 37.015625 50.324219 37.09375 50.414062 L 37.601562 51.007812 C 37.679688 51.097656 37.808594 51.113281 37.890625 51.042969 L 44.164062 45.652344 L 44.957031 46.574219 L 38.683594 51.96875 C 38.601562 52.035156 38.601562 52.167969 38.679688 52.257812 L 39.1875 52.851562 C 39.265625 52.941406 39.394531 52.960938 39.476562 52.890625 L 45.75 47.496094 L 46.542969 48.417969 L 40.269531 53.8125 C 40.1875 53.882812 40.1875 54.011719 40.265625 54.101562 L 40.773438 54.695312 C 40.851562 54.785156 40.984375 54.804688 41.066406 54.734375 L 47.335938 49.339844 L 48.128906 50.265625 L 41.855469 55.65625 C 41.777344 55.726562 41.773438 55.855469 41.851562 55.949219 L 42.359375 56.539062 C 42.441406 56.632812 42.570312 56.648438 42.648438 56.578125 L 48.921875 51.1875 L 49.714844 52.109375 L 43.441406 57.5 C 43.363281 57.570312 43.359375 57.703125 43.4375 57.792969 L 43.945312 58.386719 C 44.023438 58.476562 44.15625 58.496094 44.234375 58.425781 L 50.507812 53.03125 L 51.300781 53.953125 L 45.09375 59.289062 C 44.976562 59.390625 44.972656 59.578125 45.085938 59.710938 L 45.976562 60.746094 C 46.261719 61.078125 46.726562 61.136719 47.023438 60.886719 L 53.386719 55.414062 C 54.691406 54.292969 54.734375 52.199219 53.476562 50.742188 L 39.808594 34.839844 " fill-opacity="1" fill-rule="nonzero"/><path fill="#cf92b8" d="M 35.921875 30.320312 L 35.109375 29.378906 L 34.707031 30.878906 Z M 35.921875 30.320312 " fill-opacity="1" fill-rule="nonzero"/><path fill="#cf92b8" d="M 8.992188 17.726562 C 9.101562 17.855469 9.289062 17.882812 9.40625 17.78125 L 15.613281 12.445312 L 16.40625 13.367188 L 10.132812 18.757812 C 10.054688 18.828125 10.050781 18.960938 10.128906 19.050781 L 10.636719 19.644531 C 10.714844 19.734375 10.847656 19.75 10.925781 19.679688 L 17.199219 14.289062 L 17.992188 15.210938 L 11.71875 20.601562 C 11.640625 20.671875 11.636719 20.804688 11.714844 20.894531 L 12.226562 21.488281 C 12.300781 21.578125 12.433594 21.597656 12.515625 21.527344 L 18.785156 16.132812 L 19.578125 17.054688 L 13.308594 22.449219 C 13.226562 22.519531 13.222656 22.648438 13.300781 22.742188 L 13.8125 23.332031 C 13.890625 23.425781 14.019531 23.441406 14.101562 23.371094 L 20.371094 17.976562 L 21.164062 18.902344 L 14.894531 24.292969 C 14.8125 24.363281 14.808594 24.492188 14.886719 24.585938 L 15.398438 25.175781 C 15.476562 25.269531 15.605469 25.285156 15.6875 25.214844 L 21.957031 19.824219 L 22.75 20.746094 L 16.480469 26.136719 C 16.398438 26.207031 16.394531 26.339844 16.472656 26.429688 L 16.984375 27.023438 C 17.0625 27.113281 17.191406 27.128906 17.273438 27.0625 L 23.542969 21.667969 L 24.335938 22.589844 L 18.066406 27.984375 C 17.984375 28.054688 17.980469 28.183594 18.058594 28.273438 L 18.570312 28.867188 C 18.648438 28.957031 18.777344 28.976562 18.859375 28.90625 L 25.132812 23.511719 L 25.925781 24.433594 L 19.652344 29.828125 C 19.570312 29.898438 19.566406 30.027344 19.644531 30.121094 L 20.15625 30.710938 C 20.234375 30.804688 20.363281 30.820312 20.445312 30.75 L 26.71875 25.359375 L 27.511719 26.28125 L 21.238281 31.671875 C 21.15625 31.742188 21.152344 31.875 21.230469 31.964844 L 21.742188 32.558594 C 21.820312 32.648438 21.949219 32.664062 22.03125 32.59375 L 28.304688 27.203125 L 29.097656 28.125 L 22.824219 33.519531 C 22.742188 33.589844 22.738281 33.71875 22.816406 33.808594 L 23.328125 34.402344 C 23.40625 34.492188 23.535156 34.511719 23.617188 34.441406 L 28.21875 30.484375 L 30.859375 24.429688 L 19.113281 10.769531 C 17.859375 9.308594 15.785156 9.035156 14.480469 10.15625 L 8.113281 15.628906 C 7.820312 15.882812 7.8125 16.355469 8.09375 16.683594 L 8.992188 17.726562 " fill-opacity="1" fill-rule="nonzero"/></svg>